<svg id="Layer_1" data-name="Layer 1" xmlns="http://www.w3.org/2000/svg" viewBox="0 0 30.62 49.93"><defs><style>.cls-1{fill:#a7c0f2;}</style></defs><path class="cls-1" d="M4.71,30.78a4.55,4.55,0,0,0-3.33,1.37A4.54,4.54,0,0,0,0,35.49a4.61,4.61,0,0,0,1.38,3.36,4.52,4.52,0,0,0,3.33,1.38,4.53,4.53,0,0,0,3.34-1.38,4.61,4.61,0,0,0,1.38-3.36,4.54,4.54,0,0,0-1.38-3.34A4.56,4.56,0,0,0,4.71,30.78Z"/><path class="cls-1" d="M26.82,7.6a3.64,3.64,0,0,0,2.69-1.12A3.65,3.65,0,0,0,30.62,3.8a3.68,3.68,0,0,0-1.11-2.69,3.8,3.8,0,0,0-5.37,0A3.69,3.69,0,0,0,23,3.8a3.66,3.66,0,0,0,1.12,2.68A3.63,3.63,0,0,0,26.82,7.6Z"/><path class="cls-1" d="M18.7,16.27h5.06v22.1q0,3.23-1.85,4.47t-7.08,1.24v5.85q7.91,0,11.69-2.82t3.79-8.84V10.87H18.7Z"/></svg>